# xmcd
#
# Track frame offsets:
#	150
#	5325
#	26101
#	72766
#	89165
#	107405
#	133458
#	192168
#	210485
#
# Disc length: 2866 seconds
#
# Revision: 1
# Processed by: cddbd v1.5PL3 Copyright (c) Steve Scherf et al.
# Submitted via: CDex 1.50Beta5
#
DISCID=7c0b3009
DTITLE=岩城由奈 - えがおのはつでんしょ
DYEAR=1900
DGENRE=
TTITLE0=ごあいさつ…自己紹介
TTITLE1=小さなDiary
TTITLE2=フリートーク1 自分のこと
TTITLE3=ボクとご主人
TTITLE4=フリートーク2 犬の話〜ペットのこと
TTITLE5=あなたに -thank you-
TTITLE6=フリートーク4 いろんな話〜そろそろお別れの話
TTITLE7=夢の旅路
TTITLE8=ありがとう のメッセージ
EXTD=
EXTT0=
EXTT1=
EXTT2=
EXTT3=
EXTT4=
EXTT5=
EXTT6=
EXTT7=
EXTT8=
PLAYORDER=
